<svg width="222" height="222" viewBox="0 0 222 222" fill="none" xmlns="http://www.w3.org/2000/svg">
<g clip-path="url(#clip0_1512_160)">
<path d="M221.3 87.38C221.23 86.19 221.1 83.87 221.02 82.22C220.94 80.58 220.81 78.4 220.74 77.41C220.66 76.41 220.48 73.94 220.32 71.91C220.17 69.87 220.01 67.96 219.97 67.66C219.93 67.35 219.8 66 219.69 64.66C219.58 63.32 219.45 62.07 219.41 61.87C219.37 61.67 219.21 60.39 219.06 59.01C218.7 55.68 218.25 52 218.15 51.57C218.11 51.37 217.95 50.26 217.8 49.12C217.12 43.91 215.85 36.65 214.76 31.7C214.61 31 214.36 29.87 214.2 29.19C213.81 27.41 213.35 25.61 213.2 25.29C213.13 25.14 213 24.76 212.91 24.45C212.6 23.42 211.06 19.98 210.67 19.43C210.61 19.35 210.17 18.69 209.69 17.97C208.7 16.48 206.17 13.83 204.65 12.72C201.64 10.5 198.29 8.99996 193.97 7.93996C193.23 7.75996 192.48 7.56996 191.74 7.37996C191.22 7.22996 190.19 6.99996 187.98 6.53996C187.35 6.40996 186.72 6.26996 186.1 6.13996C183.41 5.48996 174.66 4.05996 168.96 3.33996C167.82 3.19996 166.69 3.04996 166.45 2.98996C166.03 2.89996 164.01 2.69996 159.9 2.28996C158.76 2.17996 157.18 2.00996 156.42 1.93996C155.65 1.85996 154.27 1.72996 153.35 1.64996C152.43 1.57996 150.92 1.44996 150 1.38996C146.88 1.11996 138.21 0.619961 133.41 0.409961C124.14 0.00996059 107.03 -0.120039 96.4096 0.149961C90.0296 0.299961 85.3396 0.529961 76.7596 1.05996C72.7896 1.29996 68.4496 1.64996 65.3996 1.94996C64.6296 2.02996 63.0296 2.18996 61.8496 2.29996C56.8696 2.78996 49.4896 3.71996 46.3796 4.24996C45.7196 4.35996 44.7596 4.51996 44.2196 4.59996C43.6896 4.66996 42.7396 4.83996 42.1296 4.94996C41.5196 5.05996 40.4896 5.25996 39.8296 5.36996C37.5296 5.75996 33.6096 6.55996 31.3996 7.08996C30.7896 7.23996 29.6796 7.50996 28.9596 7.67996C28.2296 7.84996 27.5796 7.99996 27.4996 8.00996C23.4096 8.97996 19.3596 10.95 16.2396 13.5C13.1996 15.97 10.4796 19.95 9.11963 23.91C8.89963 24.52 8.66963 25.15 8.59963 25.3C8.35963 25.83 7.32963 30.29 6.58963 33.94C6.47963 34.55 6.27963 35.46 6.16963 35.96C6.05963 36.46 5.90963 37.34 5.80963 37.91C5.72963 38.48 5.60963 39.18 5.53963 39.44C5.32963 40.24 4.47963 45.67 3.93963 49.61C3.40963 53.43 3.05963 56.2 2.75963 59.02C2.60963 60.4 2.44963 61.75 2.42963 62.02C2.38963 62.28 2.25963 63.64 2.13963 65.02C2.02963 66.4 1.85963 68.09 1.77963 68.78C1.48963 71.34 0.759629 82.51 0.399629 90.38C0.119629 96.22 -0.0603706 108.72 0.0396294 115.54C0.139629 124.04 0.349629 131.64 0.539629 134.29C0.609629 135.36 0.749629 137.62 0.829629 139.31C0.909629 141 1.02963 143.16 1.09963 144.12C1.41963 148.94 1.66963 152.11 1.79963 153.11C1.86963 153.72 2.03963 155.36 2.14963 156.72C2.25963 158.09 2.42963 159.72 2.49963 160.34C2.57963 160.97 2.73963 162.32 2.84963 163.35C3.19963 166.65 3.45963 168.81 3.68963 170.25C3.79963 171.02 3.99963 172.33 4.10963 173.18C4.50963 176.25 4.98963 179.23 5.49963 181.96C5.60963 182.57 5.78963 183.6 5.91963 184.26C6.15963 185.65 6.69963 188.43 7.08963 190.18C8.42963 196.33 9.00963 198.17 10.5896 201.19C11.0196 202.03 11.5796 203 11.8296 203.35C12.0696 203.7 12.4196 204.2 12.5996 204.47C13.3896 205.65 15.6696 207.97 16.9196 208.86C17.1296 209.01 17.5296 209.3 17.7996 209.51C18.0796 209.73 18.3396 209.9 18.4096 209.9C18.4696 209.9 18.6096 210 18.7196 210.11C19.2596 210.64 23.0996 212.47 24.7396 212.95C25.0496 213.05 25.4196 213.17 25.5796 213.24C25.9396 213.41 27.9896 213.92 30.4596 214.48C31.5296 214.73 32.6296 214.99 32.8996 215.07C33.5396 215.24 37.5796 216.04 40.6396 216.6C42.3996 216.92 45.8096 217.46 47.9596 217.77C48.7696 217.88 49.7996 218.03 50.2596 218.12C51.9496 218.41 58.9196 219.22 63.2896 219.64C64.8596 219.79 66.7996 219.97 67.6096 220.06C68.9196 220.2 70.2596 220.31 76.6696 220.77C77.6296 220.84 79.8196 220.97 81.5496 221.05C83.2796 221.13 85.6896 221.26 86.9196 221.33C96.8396 221.9 125.22 221.9 135 221.33C136.23 221.25 138.64 221.13 140.37 221.05C143.34 220.91 144.43 220.84 149.08 220.49C155.04 220.03 163.81 219.18 166.78 218.76C167.63 218.64 169.09 218.44 170.06 218.31C173.61 217.85 178.49 217.11 181.28 216.6C184.33 216.04 188.37 215.23 189.02 215.07C189.28 215 190.38 214.74 191.46 214.48C193.87 213.94 195.96 213.41 196.34 213.24C196.8 213.07 197.27 212.91 197.73 212.75C198.87 212.37 202.66 210.58 202.98 210.27C203.08 210.17 203.36 209.96 203.59 209.82C204.68 209.14 205.18 208.75 206.17 207.86C207.29 206.84 208.83 205.17 209.21 204.6C209.33 204.4 209.67 203.93 209.95 203.56C210.24 203.17 210.48 202.82 210.48 202.77C210.48 202.71 210.7 202.32 210.97 201.91C211.24 201.49 211.56 200.88 211.68 200.54C211.82 200.22 211.96 199.87 212.01 199.8C212.27 199.45 213.25 196.68 213.67 195.1C214.33 192.66 215.55 186.91 216 184.19C216.11 183.49 216.24 182.84 216.28 182.73C216.41 182.42 217.17 177.64 217.87 172.77C218.02 171.7 218.18 170.62 218.22 170.4C218.33 169.76 218.83 165.48 219.06 163.22C219.17 162.1 219.32 160.82 219.41 160.36C219.5 159.9 219.65 158.4 219.76 157.01C219.87 155.63 220.03 153.93 220.09 153.25C220.17 152.55 220.3 150.97 220.38 149.7C220.46 148.43 220.59 146.87 220.66 146.22C220.74 145.57 220.9 143.15 221.01 140.85C221.14 138.55 221.28 135.72 221.36 134.58C221.93 124.42 221.93 97.83 221.3 87.38Z" fill="#559FB8"/>
<path d="M83.2493 173.421L73.5393 163.051C69.8593 159.371 69.8593 155.991 73.5393 152.901L116.559 116.501C117.289 115.911 118.179 115.361 119.209 114.851C120.239 114.341 121.009 113.861 121.529 113.421C122.039 112.981 122.299 112.391 122.299 111.661V110.121C122.299 109.391 122.039 108.801 121.529 108.361C121.009 107.921 120.209 107.441 119.099 106.931C117.999 106.421 117.149 105.871 116.559 105.281L73.5393 68.6214C69.8593 65.5314 69.8593 62.1514 73.5393 58.4714L83.2493 48.3214C86.3393 45.2314 89.7193 45.2314 93.3993 48.3214L146.789 93.5514C149.579 96.0514 150.979 98.9214 150.979 102.151V119.581C150.979 122.821 149.579 125.691 146.789 128.181L93.3993 173.421C89.7193 176.511 86.3393 176.511 83.2493 173.421Z" fill="white"/>
</g>
<defs>
<clipPath id="clip0_1512_160">
<rect width="221.77" height="221.74" fill="white"/>
</clipPath>
</defs>
</svg>